# xmcd CD database file
#
# Track frame offsets:
#	150
#	18664
#	40062
#	59856
#	76594
#	96883
#	115710
#	133723
#	154663
#	173564
#	192757
#	211506
#
# Disc length: 3058 seconds
#
# Revision: 0
# Processed by: cddbd v1.5.2PL0 Copyright (c) Steve Scherf et al.
# Submitted via: CDex 1.70beta2
#
DISCID=910bf00c
DTITLE=Al Turner - Movin'
DYEAR=2008
DGENRE=Jazz
TTITLE0=Stop Watch [feat. Everette Harp]
TTITLE1=Bassin' [feat. Paul Jackson, Jr.]
TTITLE2=Movin'
TTITLE3=It's Good to Have Friends
TTITLE4=Dreamin'
TTITLE5=Feelin' Better
TTITLE6=Te Quiero [feat. Earl Klugh]
TTITLE7=Your Will [feat. Oleta Adams]
TTITLE8=I'll Follow You
TTITLE9=Autumn Nights
TTITLE10=Forever Love
TTITLE11=Paradise
EXTD=YEAR: 2008
EXTT0=
EXTT1=
EXTT2=
EXTT3=
EXTT4=
EXTT5=
EXTT6=
EXTT7=
EXTT8=
EXTT9=
EXTT10=
EXTT11=
PLAYORDER=
